<svg xmlns="http://www.w3.org/2000/svg" xmlns:xlink="http://www.w3.org/1999/xlink" viewBox="0 0 138.5 148.4"><defs><style>.a{fill:url(#a);}.b{fill:#595959;}.b,.q{stroke:#000;stroke-miterlimit:10;stroke-width:10px;}.c{fill:#bcbcbc;}.d{fill:#d3d3d3;}.e{fill:#eaeaea;}.f{fill:#fff;}.g{fill:#d37300;}.h{fill:#adadad;}.i{fill:#2d2d2d;}.j{fill:#a55200;}.k{fill:#8c8c8c;}.l{fill:#ffc108;}.m{fill:#ef991b;}.n{fill:#543e29;}.o{fill:#ffc239;}.p{fill:#d19602;}.q{fill:none;}</style><radialGradient id="a" cx="69.25" cy="76" r="76.96" gradientTransform="matrix(1, 0, 0, -1, 0, 150.2)" gradientUnits="userSpaceOnUse"><stop offset="0" stop-color="#ffc108"/><stop offset="0.51" stop-color="#fdbf08"/><stop offset="0.7" stop-color="#f6b907"/><stop offset="0.84" stop-color="#eaad05"/><stop offset="0.96" stop-color="#d99d03"/><stop offset="1" stop-color="#d19602"/></radialGradient></defs><rect class="a" width="138.5" height="148.4" rx="27"/><path class="b" d="M98.5,102.2l-6.2-2.8c4.1-11.2,9.5-31.3,6.4-37.8a2.4,2.4,0,0,0-1.1-1.3,2,2,0,0,0-2,.1c-1.9.9-3.8,2.4-4.3,3.9l-6.4.2c.3-.8,2.4-7.7,7.5-10.4a9.6,9.6,0,0,1,7.6-.4,9.1,9.1,0,0,1,5.1,4.9c2.4,5.1,2,13.7-1.2,26.5A169.6,169.6,0,0,1,98.5,102.2Z"/><path class="c" d="M92.2,55.8l.3-.2,1.1-.5,1.9-.4a9.7,9.7,0,0,1,2.4.2l1.3.3,1.4.7a8.8,8.8,0,0,1,2.4,2.3l.9,1.5.3.8.3.8a19.7,19.7,0,0,1,.6,3.5,20.5,20.5,0,0,1,.1,3.5c0,1.2-.1,2.3-.2,3.4a30.6,30.6,0,0,1-.5,3.2l-.6,2.7c-.2.8-.4,1.7-.5,2.4s-.4,1.2-.5,1.7l-.5,1.6.3-1.6.3-1.8c.1-.7.2-1.5.4-2.4s.1-.8.2-1.3.1-1,.2-1.4l.3-3.2c.1-1,.2-2.2.2-3.3a19.3,19.3,0,0,0-.1-3.4,19.1,19.1,0,0,0-.6-3.3c-.1-.3-.1-.5-.2-.8l-.3-.8a6.4,6.4,0,0,0-.8-1.4,10.4,10.4,0,0,0-2.1-2.1,6.6,6.6,0,0,0-2.4-1.1l-2.3-.3-1.8.2-1.1.3Z"/><path d="M69.9,20.4a10.7,10.7,0,0,1,9.9,7.1h.8A9.4,9.4,0,0,1,90,36.9v1.3a5.4,5.4,0,0,1,2.2,4.4,5.7,5.7,0,0,1-5.9,5.7,5.7,5.7,0,0,1-4.3-2H80.6a9.5,9.5,0,0,1-7.8-4.1,9.2,9.2,0,0,1-2.9.4H68.3a11.4,11.4,0,0,1-10,5.9,11.1,11.1,0,0,1-5.9-1.6A9,9,0,0,1,47,48.7c-4.5,0-8.2-3.3-8.2-7.4S42.5,34,47,34h.1a11.6,11.6,0,0,1,11.2-8.7,10.7,10.7,0,0,1,2.5.3,10.7,10.7,0,0,1,9.1-5.2m0-2.9a13.2,13.2,0,0,0-10.4,5H58.3A14.5,14.5,0,0,0,45,31.3c-5.2.9-9.1,5.1-9.1,10.1s5,10.3,11.1,10.3a11.9,11.9,0,0,0,5.6-1.4,13.9,13.9,0,0,0,5.7,1.2,14.5,14.5,0,0,0,11.5-5.8h1.9a12.3,12.3,0,0,0,8.9,3.8h.3a9.2,9.2,0,0,0,5.5,1.9,8.7,8.7,0,0,0,8.7-8.5A8.6,8.6,0,0,0,93,37.2h0A12.5,12.5,0,0,0,81.7,24.9a13.6,13.6,0,0,0-4.1-4.5,12.6,12.6,0,0,0-7.7-2.6Z"/><path class="d" d="M90,38.2V36.9a9.4,9.4,0,0,0-9.4-9.4h-.8a10.7,10.7,0,0,0-9.9-7.1,10.5,10.5,0,0,0-3,.5V44.6l.9-1.1,6.6.9v-.3a9.3,9.3,0,0,0,6.2,2.3H82a5.8,5.8,0,0,0,8.2.6,5.7,5.7,0,0,0,2-4.4A5.4,5.4,0,0,0,90,38.2Z"/><path class="e" d="M65.1,44.1a76.9,76.9,0,0,0-12.6,1.3l-1.7.4a11.6,11.6,0,0,0,13.8.8c-.1.2-2.1,5-14.9,3.6l-1.6,9,3.4-.5c3.8-.5,8.3-1,13.4-1.2h2V44Z"/><path class="f" d="M60.8,25.6a10.7,10.7,0,0,0-2.5-.3A11.6,11.6,0,0,0,47.1,34H47c-4.5,0-8.2,3.3-8.2,7.3s3.7,7.4,8.2,7.4a9,9,0,0,0,5.4-1.8,11.1,11.1,0,0,0,5.9,1.6,11.4,11.4,0,0,0,8.6-3.9V20.9A10.3,10.3,0,0,0,60.8,25.6Z"/><path d="M67.4,29.8h0l-.2-.3-.2-.3-.5-.8-.7-.8-.7-.7-.5-.4-.4-.4-1-.6-.9-.6-1-.4-.5-.2h-.4l-.8-.3H58.5l-.2,1.7A12.1,12.1,0,0,1,67.4,29.8Z"/><path d="M50.5,34.4h0l-.4-.2h-.3l-.9-.3-1-.2-1.1-.2H43.4l-1,.3h-.9l-.8.3-.3.2h-.2l-.5.2.9,1.5A11.6,11.6,0,0,1,50.5,34.4Z"/><path d="M53,48.5l-.3-.3-.4-.4-.3-.3-.2-.3-.6-.7-.5-.8a2.2,2.2,0,0,1-.5-.8l-.5-1-.3-1-.3-1c0-.3-.1-.6-.1-.9a2.2,2.2,0,0,1-.1-.8V39a.7.7,0,0,1,.1.5c.1.2.1.5.2.7a1.9,1.9,0,0,0,.2.7l.3.9.3.9a2.2,2.2,0,0,1,.5.8l.6.8.6.7.6.7.5.5.3.2.2.2.4.2.4.3Z"/><path d="M80.9,28.4v-.8a9.5,9.5,0,0,0-.7-2.9.8.8,0,0,0-.2-.5.5.5,0,0,0-.2-.4v-.4l-1.6,1a11.9,11.9,0,0,1,2.5,7.2h0v-.2a2.9,2.9,0,0,0,.2-.9,5.7,5.7,0,0,0,.1-1.3Z"/><path d="M90.3,39.9a2.5,2.5,0,0,0,.4-.7,15.3,15.3,0,0,0,1.1-2.7,1.3,1.3,0,0,1,.1-.6v-.8H90a11.8,11.8,0,0,1-1.9,7.3h.2l.6-.7.9-1A2.2,2.2,0,0,0,90.3,39.9Z"/><polygon class="g" points="95.3 87.8 90.3 60 90.3 60 95.3 87.8"/><polygon class="h" points="90.3 60 87.9 47.1 90.3 60 90.3 60"/><path class="h" d="M82.4,58.7l3.4.5-1.6-9.1L67.4,44h-.5V57.5H69C74,57.7,78.6,58.2,82.4,58.7Z"/><path class="h" d="M87.7,47c-.7-.2-3-.9-6.4-1.6l-5.7-.9,5,.8S85.4,46.3,87.7,47Z"/><path d="M87.6,126.8c-4.9.6-10.7,1.2-17.2,1.4H66.9a134.9,134.9,0,0,0,34.7-3.9C100.2,124.6,95.1,125.8,87.6,126.8Z"/><path d="M74.5,44.4c-2.4-.2-4.8-.4-7.1-.4h1.3A56.5,56.5,0,0,1,74.5,44.4Z"/><polygon points="102 124.2 95.3 87.8 100.1 114.1 102 124.2"/><path class="i" d="M87.6,126.8c7.5-1,12.6-2.2,14-2.5h.4l-1.9-10.2-4.2.9,1.3,6.8-30.3,6.4h3.5C76.9,128,82.7,127.4,87.6,126.8Z"/><path class="j" d="M85.8,59.2l11.8,65,4.2-.8L95.3,87.8,90.3,60Z"/><path class="k" d="M85.8,59.2l4.5.8L87.9,47.1h-.2c-2.3-.7-7.1-1.7-7.1-1.7l-5-.8H74.5a56.3,56.3,0,0,0-5.8-.3H67.4l16.8,5.8Z"/><polygon class="e" points="45.9 47.1 43.5 60 43.5 60 45.9 47.1"/><path class="l" d="M36.4,123.7,48.1,59.2l3.4-.5c3.8-.5,8.3-1,13.4-1.2h2V127A141.8,141.8,0,0,1,36.4,123.7Z"/><polygon class="m" points="43.5 60 38.5 87.8 43.5 60 43.5 60"/><path class="n" d="M32.6,124.4a168.7,168.7,0,0,0,30,3.8h0c-6.2-.3-11.7-.8-16.4-1.4C39.3,125.9,34.4,124.8,32.6,124.4Z"/><path class="n" d="M46,47c.4-.1,1.9-.6,4.3-1.1C47.9,46.4,46.4,46.9,46,47Z"/><polygon class="n" points="38.5 87.8 31.9 124.2 33.7 114.1 38.5 87.8"/><path class="f" d="M48.1,59.2l1.6-9c12.8,1.4,14.8-3.4,14.9-3.6a11.6,11.6,0,0,1-13.8-.8h-.5c-2.4.5-3.9,1-4.3,1.1h-.1L43.5,60Z"/><path class="o" d="M31.9,124.2l1.8-10.1,4.8-26.3,5-27.8,4.6-.8L38,115l-1,5.7-.8,4.2-4.3-.7"/><path class="p" d="M66.9,128.9V57.5H69c5,.2,9.6.7,13.4,1.2l3.4.5,12,65Z"/><path class="q" d="M87.9,47.1,102,124.2c-35.1,9.1-70.1,0-70.1,0l14-77.1a27.2,27.2,0,0,1,4.9-1.3,11.6,11.6,0,0,0,16.3-1.5l.3-.3a84.3,84.3,0,0,1,13.2,1.3C83.1,45.8,85.5,46.4,87.9,47.1Z"/><path class="f" d="M85,59s-12.4-1.7-18.1-1.5l15.2,3.6L90.8,119,54.1,148.4H84.2l12.7-27.3Z"/><circle cx="83.7" cy="92.3" r="1.8"/></svg>